<svg width="34" height="34" viewBox="0 0 34 34" fill="none" xmlns="http://www.w3.org/2000/svg">
<g clip-path="url(#clip0_1_5)">
<circle cx="17" cy="17" r="17" fill="white"/>
<g clip-path="url(#clip1_1_5)">
<path d="M27.381 5C27.037 5 26.691 5.109 26.395 5.334C25.724 5.847 25.374 6.91 24.781 7.551C24.011 8.379 22.55 8 21.217 6.573C19.71 7.997 17.813 9.562 15.75 10.109L16.968 11.7C17.527 11.796 18.343 11.567 18.787 11.157C18.553 11.756 18.137 12.211 17.548 12.461L18.064 13.136C19.285 14.726 16.621 14.894 15.092 14.892C13.266 14.892 9.324 14.501 9.324 13.501C9.324 12.39 13.951 11.87 15.219 11.89L13.958 10.146C10.408 10.315 8.298 11.299 7.456 12.141C7.163 12.434 7.021 12.708 7.021 12.923V13.982C5.723 15.057 4.998 16.32 5 17.579C4.999 18.744 5.603 19.726 6.684 20.343C7.388 20.745 8.366 21.009 9.571 21.009C10.842 21.009 12.368 20.708 14.085 19.977C13.762 19.001 14.485 18.003 15.503 18.002C16.331 18 17 18.672 17 19.5C17 20.329 16.331 21 15.5 21C15.216 21 14.952 20.917 14.726 20.779C12.926 21.58 11.172 22.008 9.571 22.008C8.634 22.008 7.771 21.86 7.017 21.586L7.015 25.253C7.016 25.883 7.283 26.49 7.817 27.025C8.973 28.18 11.377 29 15.043 29C18.951 29 21.988 28.054 23.297 26.745C23.756 26.286 24 25.773 24 25.253V13.849C24.677 13.361 25.332 12.914 25.875 12.578C24.828 10.884 24.816 9.358 25.884 8.849C26.652 8.481 27.715 8.407 28.363 7.911C28.781 7.591 29 7.107 29 6.618C29 5.726 28.281 5 27.381 5ZM7.018 19.357C6.367 18.922 6.008 18.317 6.009 17.578C6.008 16.849 6.37 16.077 7.021 15.359L7.018 19.357ZM21 25.844C20.442 26.118 19.618 26.35 19 26.406V16.562C19.71 16.489 20.297 16.343 21 16.046V25.844ZM22.712 12.964L19.961 9.423L21.251 8.437L24.021 12L22.712 12.964ZM27.707 7.051C27.472 7.235 27.132 7.188 26.952 6.951C26.768 6.713 26.815 6.375 27.052 6.193C27.289 6.01 27.63 6.055 27.81 6.293C27.991 6.529 27.945 6.871 27.707 7.051Z" fill="black"/>
</g>
</g>
<defs>
<clipPath id="clip0_1_5">
<rect width="34" height="34" fill="white"/>
</clipPath>
<clipPath id="clip1_1_5">
<rect width="24" height="24" fill="white" transform="translate(5 5)"/>
</clipPath>
</defs>
</svg>
