<svg width="24" height="24" viewBox="0 0 24 24" fill="none" xmlns="http://www.w3.org/2000/svg">
<path d="M22.402 0C22.058 0 21.712 0.109 21.416 0.334C20.745 0.847 20.395 1.91 19.802 2.551C19.032 3.379 17.571 3 16.238 1.573C14.731 2.997 12.834 4.562 10.771 5.109L11.989 6.7C12.548 6.796 13.364 6.567 13.808 6.157C13.574 6.756 13.158 7.211 12.569 7.461L13.085 8.136C14.306 9.726 11.642 9.894 10.113 9.892C8.287 9.892 4.345 9.501 4.345 8.501C4.345 7.39 8.972 6.87 10.24 6.89L8.979 5.146C5.429 5.315 3.319 6.299 2.477 7.141C2.184 7.434 2.042 7.708 2.042 7.923V8.982C0.744 10.057 0.0190002 11.32 0.0210002 12.579C0.0200002 13.744 0.624 14.726 1.705 15.343C2.409 15.745 3.387 16.009 4.592 16.009C5.863 16.009 7.389 15.708 9.106 14.977C8.783 14.001 9.506 13.003 10.524 13.002C11.352 13 12.021 13.672 12.021 14.5C12.021 15.329 11.352 16 10.521 16C10.237 16 9.973 15.917 9.747 15.779C7.947 16.58 6.193 17.008 4.592 17.008C3.655 17.008 2.792 16.86 2.038 16.586L2.036 20.253C2.037 20.883 2.304 21.49 2.838 22.025C3.994 23.18 6.398 24 10.064 24C13.972 24 17.009 23.054 18.318 21.745C18.777 21.286 19.021 20.773 19.021 20.253V8.849C19.698 8.361 20.353 7.914 20.896 7.578C19.849 5.884 19.837 4.358 20.905 3.849C21.673 3.481 22.736 3.407 23.384 2.911C23.802 2.591 24.021 2.107 24.021 1.618C24.021 0.726 23.302 0 22.402 0ZM2.039 14.357C1.388 13.922 1.029 13.317 1.03 12.578C1.029 11.849 1.391 11.077 2.042 10.359L2.039 14.357ZM16.021 20.844C15.463 21.118 14.639 21.35 14.021 21.406V11.562C14.731 11.489 15.318 11.343 16.021 11.046V20.844ZM17.733 7.964L14.982 4.423L16.272 3.437L19.042 7L17.733 7.964ZM22.728 2.051C22.493 2.235 22.153 2.188 21.973 1.951C21.789 1.713 21.836 1.375 22.073 1.193C22.31 1.01 22.651 1.055 22.831 1.293C23.012 1.529 22.966 1.871 22.728 2.051Z" fill="white"/>
</svg>
